<svg xmlns="http://www.w3.org/2000/svg" viewBox="0 0 200 50" width="200" height="50">
  <defs>
    <linearGradient id="logoGradient" x1="0%" y1="0%" x2="100%" y2="0%">
      <stop offset="0%" style="stop-color:#2563eb;stop-opacity:1" />
      <stop offset="100%" style="stop-color:#3b82f6;stop-opacity:1" />
    </linearGradient>
  </defs>
  
  <!-- Logo Icon -->
  <g transform="translate(8, 8)">
    <!-- Book icon -->
    <path d="M2 3h6a4 4 0 0 1 4 4v14a3 3 0 0 0-3-3H2z" fill="url(#logoGradient)" stroke="none"/>
    <path d="M22 3h-6a4 4 0 0 0-4 4v14a3 3 0 0 1 3-3h7z" fill="url(#logoGradient)" stroke="none"/>
    <!-- Graduation cap -->
    <path d="M12 14l9-5-9-5-9 5 9 5z" fill="#1d4ed8" stroke="none"/>
    <path d="M12 14l6.16-3.422a12.083 12.083 0 0 1 .665 6.479A11.952 11.952 0 0 0 12 14z" fill="#1d4ed8" stroke="none"/>
    <path d="M12 14a11.952 11.952 0 0 0-6.824 3.057 12.083 12.083 0 0 1 .665-6.479L12 14z" fill="#1d4ed8" stroke="none"/>
  </g>
  
  <!-- Logo Text -->
  <text x="50" y="20" font-family="Arial, sans-serif" font-size="14" font-weight="bold" fill="#1f2937">
    Courses
  </text>
  <text x="50" y="36" font-family="Arial, sans-serif" font-size="14" font-weight="bold" fill="#1f2937">
    &amp; Careers
  </text>
  
  <!-- Tagline -->
  <text x="130" y="25" font-family="Arial, sans-serif" font-size="8" fill="#6b7280">
    Your Educational Journey
  </text>
  <text x="130" y="35" font-family="Arial, sans-serif" font-size="8" fill="#6b7280">
    Starts Here
  </text>
</svg>